<svg id="DESSIN_copie" data-name="DESSIN copie" xmlns="http://www.w3.org/2000/svg" width="4000" height="4000" viewBox="0 0 4000 4000">
  <defs>
    <style>
      .cls-1 {
        fill: #4259a7;
      }

      .cls-1, .cls-2 {
        fill-rule: evenodd;
      }

      .cls-2, .cls-3 {
        fill: #c91b80;
        stroke: #000;
        stroke-width: 1px;
      }
    </style>
  </defs>
  <path id="KERNODE" class="cls-1" d="M754.055,3069.51h-61.5l-207.75,216-15.75-16.5,192-199.5h-61.5l-160.5,167.25V3069.51h-45v528.75h45v-196.5l184.5,196.5h61.5l-246-261v-35.25l278.25,296.25h63l-264.75-279.75Zm-427.5,528.75h45V3069.51h-45v528.75Zm458.991,0h45V3182.01h22.5v416.25H1156.8v-45H898.046v-22.5H1156.8v-45H898.046V3384.51H1134.3v-45H898.046v-22.5H1134.3v-45H898.046v-90h247.5v-45h-360v461.25Zm0-483.75h360v-45h-360v45Zm836.994,483.75-115.5-212.25a159.617,159.617,0,0,0,43.12-23.25,164.542,164.542,0,0,0,34.5-35.25,160.268,160.268,0,0,0,30.38-94.5,158.774,158.774,0,0,0-12.75-63.37,165.889,165.889,0,0,0-87.38-87.38,158.739,158.739,0,0,0-63.37-12.75h-231v45h231a113.536,113.536,0,0,1,46.12,9.38,121.18,121.18,0,0,1,63,63,118.1,118.1,0,0,1,0,92.25,117,117,0,0,1-25.5,37.12,124.992,124.992,0,0,1-37.5,25.13,113.365,113.365,0,0,1-46.12,9.37h-118.5v-22.5h118.5a92.891,92.891,0,0,0,37.5-7.5,100.664,100.664,0,0,0,30.37-20.25,95.845,95.845,0,0,0,20.63-105,97.858,97.858,0,0,0-51-51,93.228,93.228,0,0,0-37.5-7.5h-231v461.25h45V3182.01h22.5v416.25h45v-202.5h50.25l110.25,202.5h51l-110.25-202.5h17.25a34.6,34.6,0,0,1,4.87.38,10.286,10.286,0,0,0,4.88-.38l110.25,202.5h51Zm-171-416.25q21.735,0,36.37,14.63t14.63,36.37q0,21.765-14.63,36-14.625,14.265-36.37,14.25h-118.5V3182.01h118.5Zm626.99,416.25h18V3069.51h-45v392.25l-212.25-392.25h-52.5Zm-76.5,0h49.5l-292.5-528.75h-22.5v528.75h45v-406.5Zm117,0h45V3069.51h-45v528.75Zm-450,0h45V3069.51h-45v528.75Zm572.99-156.75q21.75,50.265,58.88,87.38t87.37,58.87q50.25,21.75,107.25,21.75t107.25-21.75a283.238,283.238,0,0,0,87.75-58.87,275.572,275.572,0,0,0,59.25-87.38q21.75-50.235,21.75-107.25,0-56.985-21.75-107.25a278.144,278.144,0,0,0-147-147q-50.25-21.735-107.25-21.75t-107.25,21.75a275.969,275.969,0,0,0-87.37,59.25,283.674,283.674,0,0,0-58.88,87.75q-21.75,50.265-21.75,107.25Q2220.27,3391.275,2242.02,3441.51Zm41.25-197.25a235.552,235.552,0,0,1,49.13-73.5,227.694,227.694,0,0,1,73.12-49.5q42-18,90-18t90,18a231.356,231.356,0,0,1,123,123q18,42.015,18,90,0,48.015-18,90a227.628,227.628,0,0,1-49.5,73.13,235.409,235.409,0,0,1-73.5,49.12q-42,18-90,18t-90-18a228.647,228.647,0,0,1-122.25-122.25q-18-41.985-18-90Q2265.27,3286.275,2283.27,3244.26Zm21,170.63a209.978,209.978,0,0,0,110.63,110.62,199.443,199.443,0,0,0,80.62,16.5,202.153,202.153,0,0,0,81-16.5,208.892,208.892,0,0,0,111-110.62,199.657,199.657,0,0,0,16.5-80.63,202.323,202.323,0,0,0-16.5-81,207.972,207.972,0,0,0-111-111,202.494,202.494,0,0,0-81-16.5,199.778,199.778,0,0,0-80.62,16.5,209.044,209.044,0,0,0-110.63,111,202.323,202.323,0,0,0-16.5,81A199.657,199.657,0,0,0,2304.27,3414.89Zm40.5-144a168.819,168.819,0,0,1,34.88-52.13,161.1,161.1,0,0,1,51.75-35.25,163.881,163.881,0,0,1,126.75,0,165.917,165.917,0,0,1,87.37,87.38,163.881,163.881,0,0,1,0,126.75,160.942,160.942,0,0,1-35.25,51.75,168.57,168.57,0,0,1-52.12,34.87,163.881,163.881,0,0,1-126.75,0,163.183,163.183,0,0,1-86.63-86.62A163.881,163.881,0,0,1,2344.77,3270.89Zm543.75,327.37h144q57,0,107.25-20.62t87.75-56.25a264.811,264.811,0,0,0,59.25-83.63q21.75-47.985,21.75-103.5,0-55.485-21.75-103.87a263.813,263.813,0,0,0-59.25-84q-37.5-35.61-87.75-56.25-50.25-20.625-107.25-20.63h-211.5v45h211.5q48,0,90,16.88a229.589,229.589,0,0,1,73.5,46.87,220.745,220.745,0,0,1,49.5,70.13,207.4,207.4,0,0,1,18,85.87q0,46.515-18,86.25a217.283,217.283,0,0,1-49.5,69.38,232.627,232.627,0,0,1-73.5,46.5q-42,16.875-90,16.87h-99v-22.5h99a215.129,215.129,0,0,0,81-15.37q38.25-15.36,66.38-41.63a195.64,195.64,0,0,0,44.62-62.25,189.085,189.085,0,0,0,0-154.5,200.15,200.15,0,0,0-44.62-62.62q-28.125-26.61-66.38-42a215.332,215.332,0,0,0-81-15.38h-211.5v461.25h45V3182.01h22.5v416.25Zm143.25-416.25a172,172,0,0,1,63.38,11.63,166.316,166.316,0,0,1,52.12,32.25,150.045,150.045,0,0,1,35.25,48.37,147.551,147.551,0,0,1,0,120,145.628,145.628,0,0,1-35.25,48,169.874,169.874,0,0,1-52.12,31.88,171.787,171.787,0,0,1-63.38,11.62h-98.25V3182.01h98.25Zm320.99,416.25h45V3182.01h22.5v416.25h303.75v-45H3465.26v-22.5h258.75v-45H3465.26V3384.51h236.25v-45H3465.26v-22.5h236.25v-45H3465.26v-90h247.5v-45h-360v461.25Zm0-483.75h360v-45h-360v45Z"/>
  <g id="lignes">
    <path id="Forme_1" data-name="Forme 1" class="cls-2" d="M1616.45,2542.73l-7.15,10.88L1070.04,2183.6l7.15-10.88Z"/>
    <path id="Forme_2" data-name="Forme 2" class="cls-2" d="M1275.35,2467.3l-10.7,7.4-195-282,10.7-7.4Z"/>
    <path id="Forme_3" data-name="Forme 3" class="cls-2" d="M1618.56,2548.69l-3.12,12.62-348-86,3.12-12.62Z"/>
    <path id="Forme_4" data-name="Forme 4" class="cls-2" d="M1614.01,2560.82l1.78-11.82,681.2,87.18-1.78,11.82Z"/>
    <path id="Forme_10" data-name="Forme 10" class="cls-2" d="M810.823,1846.93l10.354-7.86,243,320-10.36,7.86Z"/>
    <path id="Forme_11" data-name="Forme 11" class="cls-2" d="M902.642,1474.35l12.716-2.7,148,697-12.72,2.7Z"/>
    <path id="Forme_12" data-name="Forme 12" class="cls-2" d="M902.645,1477.82l8.71-9.64,483,436-8.72,9.64Z"/>
    <path id="Forme_13" data-name="Forme 13" class="cls-2" d="M875.528,1116.39l12.944,1.22-68,725-12.944-1.22Z"/>
    <path id="Forme_14" data-name="Forme 14" class="cls-2" d="M820.307,1843.57l-12.614-3.14,92-369,12.614,3.14Z"/>
    <path id="Forme_15" data-name="Forme 15" class="cls-2" d="M912.486,1472.58l-12.972.84-23-354,12.972-.84Z"/>
    <path id="Forme_16" data-name="Forme 16" class="cls-2" d="M914.18,1480.98l-8.36-9.96,518-435,8.36,9.96Z"/>
    <path id="Forme_17" data-name="Forme 17" class="cls-2" d="M1421.51,1038.71l12.98,0.58-39,870-12.98-.58Z"/>
    <path id="Forme_18" data-name="Forme 18" class="cls-2" d="M887.339,1119.71l-10.678-7.42,216-311,10.68,7.416Z"/>
    <path id="Forme_19" data-name="Forme 19" class="cls-2" d="M1092.75,800.214l12.5,3.572-192,672-12.5-3.58Z"/>
    <path id="Forme_20" data-name="Forme 20" class="cls-2" d="M1094.15,810.24l7.7-10.48,327,240-7.7,10.48Z"/>
    <path id="Forme_21" data-name="Forme 21" class="cls-2" d="M1103.72,808.466l-9.44-8.932,261-276,9.44,8.932Z"/>
    <path id="Forme_22" data-name="Forme 22" class="cls-2" d="M1361.56,534.309l-3.12-12.618,335-83,3.12,12.618Z"/>
    <path id="Forme_23" data-name="Forme 23" class="cls-2" d="M1691.63,439.442l6.74,11.116-597,362-6.74-11.116Z"/>
    <path id="Forme_24" data-name="Forme 24" class="cls-2" d="M1687.07,447.341l11.86,5.318-265,591-11.86-5.32Z"/>
    <path id="Forme_25" data-name="Forme 25" class="cls-2" d="M1427.72,1051.27l-3.44-12.54,834-229,3.44,12.536Z"/>
    <path id="Forme_26" data-name="Forme 26" class="cls-2" d="M2263.53,810.539l-7.06,10.922-567-366,7.06-10.922Z"/>
    <path id="Forme_27" data-name="Forme 27" class="cls-2" d="M1693.23,456.5l-0.46-12.992,719-26,0.46,12.992Z"/>
    <path id="Forme_28" data-name="Forme 28" class="cls-2" d="M2047.9,320.849l4.2,12.3-354,121-4.2-12.3Z"/>
    <path id="Forme_29" data-name="Forme 29" class="cls-2" d="M2050.31,333.277l3.38-12.554,361,97-3.38,12.554Z"/>
    <path id="Forme_30" data-name="Forme 30" class="cls-2" d="M2409.34,429.929l5.32-11.858,354,159-5.32,11.858Z"/>
    <path id="Forme_31" data-name="Forme 31" class="cls-2" d="M2760.29,586.1l11.42-6.2,171,315-11.42,6.2Z"/>
    <path id="Forme_32" data-name="Forme 32" class="cls-2" d="M2937.8,891.549l-1.6,12.9-677-84,1.6-12.9Z"/>
    <path id="Forme_33" data-name="Forme 33" class="cls-2" d="M2266.04,816.411l-12.08-4.822,155-388,12.08,4.822Z"/>
    <path id="Forme_34" data-name="Forme 34" class="cls-2" d="M2410.62,430.8l8.76-9.608,520,474-8.76,9.608Z"/>
    <path id="Forme_35" data-name="Forme 35" class="cls-2" d="M2761.61,589.636l10.78-7.272,413,612-10.78,7.28Z"/>
    <path id="Forme_36" data-name="Forme 36" class="cls-2" d="M3185.05,1193.91l-10.1,8.18-243-300,10.1-8.182Z"/>
    <path id="Forme_37" data-name="Forme 37" class="cls-2" d="M2931.85,899.11l12.3-4.22,231,673-12.3,4.22Z"/>
    <path id="Forme_38" data-name="Forme 38" class="cls-2" d="M3175.49,1570.27l-12.98-.54,15-367,12.98,0.54Z"/>
    <path id="Forme_39" data-name="Forme 39" class="cls-2" d="M3171.37,1569.51l-0.74,12.98-440-25,0.74-12.98Z"/>
    <path id="Forme_40" data-name="Forme 40" class="cls-2" d="M2745.22,1552.89l-12.44-3.78,198-653,12.44,3.772Z"/>
    <path id="Forme_41" data-name="Forme 41" class="cls-2" d="M2251.55,817.542l10.9-7.084,477,734-10.9,7.08Z"/>
    <path id="Forme_42" data-name="Forme 42" class="cls-2" d="M2729.65,1541.38l12.7-2.76,145,665-12.7,2.76Z"/>
    <path id="Forme_43" data-name="Forme 43" class="cls-2" d="M2886.91,2207.7l-11.82-5.4,290-635,11.82,5.4Z"/>
    <path id="Forme_44" data-name="Forme 44" class="cls-2" d="M3164.52,1571.52l12.96,0.96-30,402-12.96-.96Z"/>
    <path id="Forme_45" data-name="Forme 45" class="cls-2" d="M3136.68,1969.14l8.64,9.72-260,231-8.64-9.72Z"/>
    <path id="Forme_46" data-name="Forme 46" class="cls-2" d="M2883.96,2201.5l0.08,13-685,4-0.08-13Z"/>
    <path id="Forme_47" data-name="Forme 47" class="cls-2" d="M2883.01,2199.87l7.98,10.26-553,430-7.98-10.26Z"/>
    <path id="Forme_48" data-name="Forme 48" class="cls-2" d="M2330.9,2647.22l-3.8-12.44,366-112,3.8,12.44Z"/>
    <path id="Forme_49" data-name="Forme 49" class="cls-2" d="M2700.07,2533.07l-10.14-8.14,440-549,10.14,8.14Z"/>
    <path id="Forme_50" data-name="Forme 50" class="cls-2" d="M2737.42,1544.51l-0.84,12.98-733-47,0.84-12.98Z"/>
    <path id="Forme_51" data-name="Forme 51" class="cls-2" d="M1997.73,1505.71l12.54-3.42,193,708-12.54,3.42Z"/>
    <path id="Forme_52" data-name="Forme 52" class="cls-2" d="M2202.03,2216.11l-10.06-8.22,539-660,10.06,8.22Z"/>
    <path id="Forme_53" data-name="Forme 53" class="cls-2" d="M1393.59,1916.42l-7.18-10.84,615-408,7.18,10.84Z"/>
    <path id="Forme_54" data-name="Forme 54" class="cls-2" d="M2009.05,1497.91l-8.1,10.18-579-461,8.1-10.18Z"/>
    <path id="Forme_55" data-name="Forme 55" class="cls-2" d="M2252.9,811.767l12.2,4.466-252,689-12.2-4.46Z"/>
    <path id="Forme_56" data-name="Forme 56" class="cls-2" d="M2312.27,2640.74l3.46,12.52-343,95-3.46-12.52Z"/>
    <path id="Forme_57" data-name="Forme 57" class="cls-2" d="M1977,2736.43l-6.05,11.56L1612,2562.57l6.05-11.56Z"/>
    <path id="Forme_58" data-name="Forme 58" class="cls-2" d="M1977,2735.79l-4.72,12.21L1274,2478.21l4.72-12.21Z"/>
    <path id="Forme_5" data-name="Forme 5" class="cls-2" d="M1620.3,2558.6l-6.6-11.2,576-339,6.6,11.2Z"/>
    <path id="Forme_6" data-name="Forme 6" class="cls-2" d="M2192.71,2212.65l12.58-3.3,106,404-12.58,3.3Z"/>
    <path id="Forme_7" data-name="Forme 7" class="cls-2" d="M1382.86,1916.12l12.28-4.24,220,637-12.28,4.24Z"/>
    <path id="Forme_8" data-name="Forme 8" class="cls-2" d="M1387.66,1908.07l4.68-12.14,812,313-4.68,12.14Z"/>
    <path id="Forme_9" data-name="Forme 9" class="cls-2" d="M1389.14,1899.77l7.72,10.46-331,244-7.72-10.46Z"/>
  </g>
  <g id="ellipses">
    <circle class="cls-3" cx="2004.5" cy="1504.5" r="62.5"/>
    <circle id="Ellipse_1_copie_3" data-name="Ellipse 1 copie 3" class="cls-3" cx="1429" cy="1044" r="40"/>
    <circle id="Ellipse_1_copie_4" data-name="Ellipse 1 copie 4" class="cls-3" cx="3173" cy="1573" r="40"/>
    <circle id="Ellipse_1_copie_5" data-name="Ellipse 1 copie 5" class="cls-3" cx="1061" cy="2173" r="40"/>
    <circle id="Ellipse_1_copie_6" data-name="Ellipse 1 copie 6" class="cls-3" cx="2198.5" cy="2213.5" r="34.5"/>
    <circle id="Ellipse_1_copie_7" data-name="Ellipse 1 copie 7" class="cls-3" cx="1695.5" cy="450.5" r="34.5"/>
    <circle id="Ellipse_1_copie_8" data-name="Ellipse 1 copie 8" class="cls-3" cx="2413.5" cy="426.5" r="34.5"/>
    <circle id="Ellipse_1_copie_9" data-name="Ellipse 1 copie 9" class="cls-3" cx="2051" cy="327" r="21"/>
    <circle id="Ellipse_1_copie_10" data-name="Ellipse 1 copie 10" class="cls-3" cx="2260" cy="815" r="21"/>
    <circle id="Ellipse_1_copie_11" data-name="Ellipse 1 copie 11" class="cls-3" cx="1362" cy="529" r="21"/>
    <circle id="Ellipse_1_copie_12" data-name="Ellipse 1 copie 12" class="cls-3" cx="1099" cy="807" r="21"/>
    <circle id="Ellipse_1_copie_13" data-name="Ellipse 1 copie 13" class="cls-3" cx="883" cy="1118" r="21"/>
    <circle id="Ellipse_1_copie_14" data-name="Ellipse 1 copie 14" class="cls-3" cx="909" cy="1474" r="21"/>
    <circle id="Ellipse_1_copie_15" data-name="Ellipse 1 copie 15" class="cls-3" cx="816" cy="1843" r="21"/>
    <circle id="Ellipse_1_copie_16" data-name="Ellipse 1 copie 16" class="cls-3" cx="1390" cy="1910" r="21"/>
    <circle id="Ellipse_1_copie_17" data-name="Ellipse 1 copie 17" class="cls-3" cx="1278" cy="2469" r="21"/>
    <circle id="Ellipse_1_copie_18" data-name="Ellipse 1 copie 18" class="cls-3" cx="1617" cy="2553" r="21"/>
    <circle id="Ellipse_1_copie_19" data-name="Ellipse 1 copie 19" class="cls-3" cx="2696" cy="2528" r="21"/>
    <circle id="Ellipse_1_copie_20" data-name="Ellipse 1 copie 20" class="cls-3" cx="2882" cy="2205" r="21"/>
    <circle id="Ellipse_1_copie_21" data-name="Ellipse 1 copie 21" class="cls-3" cx="3132" cy="1973" r="21"/>
    <circle id="Ellipse_1_copie_22" data-name="Ellipse 1 copie 22" class="cls-3" cx="3178" cy="1201" r="21"/>
    <circle id="Ellipse_1_copie_23" data-name="Ellipse 1 copie 23" class="cls-3" cx="2938" cy="900" r="21"/>
    <circle id="Ellipse_1_copie_24" data-name="Ellipse 1 copie 24" class="cls-3" cx="2766" cy="591" r="21"/>
    <circle id="Ellipse_1_copie_25" data-name="Ellipse 1 copie 25" class="cls-3" cx="1973.5" cy="2740.5" r="12.5"/>
    <circle id="Ellipse_1_copie" data-name="Ellipse 1 copie" class="cls-3" cx="2736.5" cy="1550.5" r="62.5"/>
    <circle id="Ellipse_1_copie_2" data-name="Ellipse 1 copie 2" class="cls-3" cx="2322.5" cy="2648.5" r="62.5"/>
  </g>
</svg>
